PathFileType	4	(X/Y/Z)	C:\Users\T490\OneDrive\Desktop\110_Internship_Tasks\Sprint GSG Position Analysis\results\sports2d_output\sprint_video_Sports2D\sprint_video_Sports2D_m_person00.trc
DataRate	CameraRate	NumFrames	NumMarkers	Units	OrigDataRate	OrigDataStartFrame	OrigNumFrames
25.0	25.0	8	22	m	25.0	457	523
Frame#	Time	Hip			RHip			RKnee			RAnkle			RBigToe			RSmallToe			RHeel			LHip			LKnee			LAnkle			LBigToe			LSmallToe			LHeel			Neck			Head			Nose			RShoulder			RElbow			RWrist			LShoulder			LElbow			LWrist			
		X1	Y1	Z1	X2	Y2	Z2	X3	Y3	Z3	X4	Y4	Z4	X5	Y5	Z5	X6	Y6	Z6	X7	Y7	Z7	X8	Y8	Z8	X9	Y9	Z9	X10	Y10	Z10	X11	Y11	Z11	X12	Y12	Z12	X13	Y13	Z13	X14	Y14	Z14	X15	Y15	Z15	X16	Y16	Z16	X17	Y17	Z17	X18	Y18	Z18	X19	Y19	Z19	X20	Y20	Z20	X21	Y21	Z21	X22	Y22	Z22
457	18.312759856630823	3.7296072183619136	0.3800273444807847	0.0301	3.702701142272297	0.3742613002393582	0.0301	3.480130013039885	0.13778328929785183	0.129	3.8432588746381655	0.1583946564644118	0.023	3.9075445520743184	0.095236694377871	0.2179	3.922682894706737	0.10842607618731305	0.1804	3.9192632983585947	0.20467291736609525	-0.0119	3.7564116926571556	0.37656021781373694	0.0301	3.741811752384884	-0.020905048302163436	0.129	4.119707993808245	0.14007631498064943	0.023	4.179362613694447	0.009421964755669353	0.2179	4.187893996813518	0.03515776770550189	0.1804	4.155218827155456	0.18735157190622062	-0.0119	3.252140496462189	0.533829588747765	0.0008	3.0444347173722117	0.3686581914474096	0.0655	3.1997127348148715	0.38631485433441753	0.1076	3.3037188996828784	0.6002511987166625	-0.01275	3.359214495555737	0.31057206684340094	0.0702	3.392827560174372	0.05843940543050138	0.1076	3.296049811599952	0.5528178449088378	-0.01275	3.3477828140712833	0.30598166802296	0.0702	3.3879236822694487	0.07616354569722027	0.1076
458	18.352831541218638	3.7298691935888337	0.3796818864191637	0.0301	3.7034390501726993	0.37404112352060664	0.0301	3.4809358368522463	0.1371830683593672	0.129	3.842395138255021	0.16034701604463988	0.023	3.91026546108067	0.09401427978256069	0.2179	3.924995517273574	0.10829485161589307	0.1804	3.9199047684171946	0.21173582083651	-0.0119	3.757701778970732	0.3763536198373523	0.0301	3.7420667244980526	-0.019525214918463273	0.129	4.121167678917665	0.14055324434621333	0.023	4.177168164637591	0.009766130953645374	0.2179	4.187057715229241	0.033387668010339565	0.1804	4.154896530551296	0.18701531019628412	-0.0119	3.25160912366825	0.5338031443067863	0.0008	3.042920874828693	0.36972417698189197	0.0655	3.1982719245440996	0.38682552187676766	0.1076	3.3018884017999315	0.6001462069810447	-0.01275	3.3592159905856143	0.31001033759470886	0.0702	3.390735828789955	0.053175341992922766	0.1076	3.2954098000318486	0.5532101326552852	-0.01275	3.3477822194636757	0.3073107934222778	0.0702	3.388089029985189	0.07605861915181396	0.1076
459	18.392903225806453	3.7299702973067137	0.38019463438633105	0.0301	3.70586385510249	0.37504735842822345	0.0301	3.4820195729666827	0.1366489584559722	0.129	3.842915338174399	0.16093495782498746	0.023	3.910403561997177	0.09334016436424371	0.2179	3.9252583925412465	0.10801326734633038	0.1804	3.919920121470375	0.21413982492560468	-0.0119	3.758186331528959	0.3754234897928068	0.0301	3.7422013021661975	-0.020126166462337416	0.129	4.121369740906999	0.13909215016933293	0.023	4.175492382590172	0.011326629482717161	0.2179	4.1865613919139815	0.03273985110487763	0.1804	4.155569456216006	0.18556052480849988	-0.0119	3.251583362827624	0.5320961475118834	0.0008	3.041330364065215	0.37062021060809053	0.0655	3.1971308459526724	0.3877675504997553	0.1076	3.2998447788049505	0.6005730494748153	-0.01275	3.3592279601339805	0.30976436359474907	0.0702	3.3937080476495485	0.050975713759032565	0.1076	3.2942817297032865	0.5525671286529223	-0.01275	3.3467927705274474	0.3049128410799065	0.0702	3.38784350362562	0.07587329473044672	0.1076
460	18.432974910394265	3.7299030072775112	0.3808781882443668	0.0301	3.706847447944065	0.3763363703056906	0.0301	3.4824494359521605	0.1367533713873199	0.129	3.842549163997713	0.16004864685105977	0.023	3.9070270492403543	0.09439905630739508	0.2179	3.9216767199230165	0.10772136195393418	0.1804	3.919495916722982	0.21211783321342584	-0.0119	3.757821062558945	0.3753079564582221	0.0301	3.7414425331845527	-0.021138273236305443	0.129	4.120118525313468	0.13830125576427607	0.023	4.179018946584275	0.013017354330071349	0.2179	4.188617882320517	0.035664521426843745	0.1804	4.157081335798122	0.18468463960767406	-0.0119	3.251818648652162	0.5307404733631383	0.0008	3.041216580378958	0.36941110240152314	0.0655	3.1978791717227804	0.3884791790176342	0.1076	3.299767222982972	0.6005554402290916	-0.01275	3.3594619897889033	0.3098773258971793	0.0702	3.3993224034944034	0.057287753650757015	0.1076	3.2938652389854903	0.5510125396939451	-0.01275	3.345972490515608	0.29978171302593487	0.0702	3.3872182402319457	0.07568842582985034	0.1076
461	18.47304659498208	3.729912463336042	0.3804869967562377	0.0301	3.7052443964113895	0.3770524198837323	0.0301	3.4820491828214375	0.13744620927447668	0.129	3.8399348454913658	0.15898844087250674	0.023	3.9059429879979866	0.09647619436330418	0.2179	3.9210064906864255	0.10756392615779525	0.1804	3.919682101874748	0.2120813213509309	-0.0119	3.757612888163473	0.37616799739228607	0.0301	3.7409048443292328	-0.020697180815348493	0.129	4.118826301803928	0.13849489221207464	0.023	4.183270155810026	0.013698002427705039	0.2179	4.190505598813718	0.03923027706657349	0.1804	4.157288948875181	0.1847440793294063	-0.0119	3.251856905079786	0.5309461931488688	0.0008	3.041504026238378	0.36674981361869324	0.0655	3.1979649796062395	0.3877350804764794	0.1076	3.3016391580017657	0.599920154150396	-0.01275	3.3595990194834253	0.3095434779853992	0.0702	3.3986870392306496	0.061018685289486986	0.1076	3.2937536055271694	0.5503577916227729	-0.01275	3.345770844806141	0.3006723142679349	0.0702	3.386882376430425	0.07691269744358399	0.1076
462	18.51311827956989	3.729796446326672	0.37918767745361887	0.0301	3.704872627674947	0.3774189350359963	0.0301	3.482554846332936	0.13810309254766273	0.129	3.8388059708939246	0.15855496171058145	0.023	3.908630687666535	0.09762833680355056	0.2179	3.925521948455332	0.1077489522596657	0.1804	3.920278683229341	0.21312568774995921	-0.0119	3.7577317757033017	0.3757866196689858	0.0301	3.7413934975367016	-0.01962113596689135	0.129	4.118223846757378	0.13785898503895347	0.023	4.1816603504747025	0.013667732875948623	0.2179	4.1890333809720675	0.03850264129692742	0.1804	4.155066589716497	0.18441126207445258	-0.0119	3.251755216818815	0.5312750269892105	0.0008	3.0412940930414645	0.3656255278391978	0.0655	3.1960932042133035	0.38627858276863947	0.1076	3.3044817391007686	0.5994371230628965	-0.01275	3.3597045945536497	0.30933273882514856	0.0702	3.3929923639627617	0.05820084931871048	0.1076	3.2932576984059936	0.5509684193427369	-0.01275	3.345684725436631	0.3064113353076303	0.0702	3.3870498004518748	0.07827158607323609	0.1076
463	18.553189964157706	3.72976390227354	0.37948350273531417	0.0301	3.7090511125548193	0.3776267281922975	0.0301	3.4853706421599497	0.13809312523421485	0.129	3.841188989225015	0.158746118380797	0.023	3.9103488158798534	0.09665782258814529	0.2179	3.927514818099111	0.10820872203948086	0.1804	3.9207692537233085	0.20960087786025397	-0.0119	3.7578443686063547	0.37388866376983027	0.0301	3.7419447887347865	-0.01927048734323181	0.129	4.11826078325548	0.1370198110098095	0.023	4.177624531539406	0.013754251189287463	0.2179	4.187381413411577	0.033431539001731785	0.1804	4.152345627882638	0.1838385571339708	-0.0119	3.251799992256836	0.5308506497691432	0.0008	3.0409958514439204	0.3681272304509473	0.0655	3.1945647024868205	0.38603207775343423	0.1076	3.3068227381200357	0.599690299529558	-0.01275	3.3595265957178477	0.31055638750145165	0.0702	3.390214391931786	0.06200709961007834	0.1076	3.2930086859331964	0.5511254052858261	-0.01275	3.345605824243395	0.3068109144519242	0.0702	3.3870476120448654	0.07556737947598059	0.1076
464	18.59326164874552	3.7300487980876986	0.38154514136448714	0.0301	3.7109682405166846	0.3765259241395502	0.0301	3.486851626110586	0.13775967904955463	0.129	3.8428639439206953	0.15877875314566195	0.023	3.9103957643996337	0.09400410047875105	0.2179	3.9238270639183654	0.10779949019782445	0.1804	3.9207622912397646	0.20480484756493275	-0.0119	3.7578197823573065	0.3730735133180856	0.0301	3.7420291187417933	-0.019717246934889663	0.129	4.118804565241988	0.13775740026741962	0.023	4.177646286583257	0.014237453564721331	0.2179	4.189135386521076	0.03134616951671941	0.1804	4.1514914678240045	0.1841221147836594	-0.0119	3.2518851358466785	0.5312702304714959	0.0008	3.0407097331337423	0.37061816117044677	0.0655	3.194280300234878	0.3863299201327455	0.1076	3.3070188931522466	0.600291412351124	-0.01275	3.3583889895097285	0.3108891704267031	0.0702	3.392104374048999	0.0716832931492978	0.1076	3.293545782694867	0.5506114091967605	-0.01275	3.345634858198595	0.3007793082315436	0.0702	3.386983016291012	0.06895932579308638	0.1076
